<svg width="18" height="16" viewBox="0 0 18 16" fill="none" xmlns="http://www.w3.org/2000/svg">
<path d="M9.46172 8.49725L17.107 2.51366C17.1984 2.44335 17.25 2.33319 17.25 2.21835L17.25 0.406629C17.25 0.249598 17.0695 0.162879 16.9477 0.258973L9 6.47928L1.05235 0.258972C1.02471 0.237332 0.991545 0.223904 0.956638 0.220225C0.921732 0.216546 0.886496 0.222763 0.854956 0.238166C0.823418 0.253569 0.796848 0.277536 0.778288 0.307326C0.759727 0.337117 0.749926 0.371529 0.750002 0.406628L0.750002 2.21835C0.750002 2.33319 0.803907 2.44335 0.892969 2.51366L8.53594 8.49725C8.81016 8.71054 9.18984 8.71054 9.46172 8.49725ZM9.46172 15.6223L17.107 9.63866C17.1984 9.56835 17.25 9.45819 17.25 9.34335L17.25 7.53163C17.25 7.3746 17.0695 7.28788 16.9477 7.38397L9 13.6043L1.05234 7.38397C1.02471 7.36233 0.991544 7.3489 0.956638 7.34522C0.921732 7.34155 0.886495 7.34776 0.854955 7.36317C0.823417 7.37857 0.796848 7.40254 0.778288 7.43233C0.759727 7.46212 0.749925 7.49653 0.750002 7.53163L0.750002 9.34335C0.750002 9.45819 0.803907 9.56835 0.892969 9.63866L8.53594 15.6223C8.81016 15.8355 9.18984 15.8355 9.46172 15.6223Z" fill="white"/>
</svg>
