<svg width="7" height="12" viewBox="0 0 7 12" fill="none" xmlns="http://www.w3.org/2000/svg">
<path d="M5.2998 11.2998L0.699804 6.6998C0.599804 6.5998 0.529138 6.49147 0.487804 6.3748C0.445804 6.25814 0.424805 6.13314 0.424805 5.9998C0.424805 5.86647 0.445804 5.74147 0.487804 5.6248C0.529138 5.50814 0.599804 5.3998 0.699804 5.2998L5.2998 0.699804C5.48314 0.516471 5.71647 0.424805 5.9998 0.424805C6.28314 0.424805 6.51647 0.516471 6.6998 0.699804C6.88314 0.883138 6.9748 1.11647 6.9748 1.3998C6.9748 1.68314 6.88314 1.91647 6.6998 2.0998L2.7998 5.9998L6.6998 9.8998C6.88314 10.0831 6.9748 10.3165 6.9748 10.5998C6.9748 10.8831 6.88314 11.1165 6.6998 11.2998C6.51647 11.4831 6.28314 11.5748 5.9998 11.5748C5.71647 11.5748 5.48314 11.4831 5.2998 11.2998Z" fill="white"/>
</svg>
