<svg width="16" height="16" viewBox="0 0 16 16" fill="none" xmlns="http://www.w3.org/2000/svg">
<path d="M9.21425 8L15.3666 0.666406C15.4697 0.544531 15.383 0.359375 15.2236 0.359375H13.3533C13.2432 0.359375 13.1377 0.408594 13.065 0.492969L7.99081 6.54219L2.91659 0.492969C2.84628 0.408594 2.74081 0.359375 2.62831 0.359375H0.758C0.598625 0.359375 0.511906 0.544531 0.615031 0.666406L6.76738 8L0.615031 15.3336C0.591931 15.3608 0.57711 15.394 0.57233 15.4293C0.56755 15.4647 0.57301 15.5006 0.588063 15.533C0.603116 15.5653 0.627129 15.5926 0.657252 15.6117C0.687375 15.6308 0.722341 15.6408 0.758 15.6406H2.62831C2.73847 15.6406 2.84394 15.5914 2.91659 15.507L7.99081 9.45781L13.065 15.507C13.1353 15.5914 13.2408 15.6406 13.3533 15.6406H15.2236C15.383 15.6406 15.4697 15.4555 15.3666 15.3336L9.21425 8Z" fill="#0B0B0D"/>
</svg>
