<svg width="17" height="20" viewBox="0 0 17 20" fill="none" xmlns="http://www.w3.org/2000/svg">
<path d="M7.30961 0.0668859C3.97215 0.437907 0.646466 3.12684 0.509203 6.96788C0.422923 9.31313 1.09159 11.0725 3.3329 11.5666C4.30551 9.85794 3.01916 9.48106 2.81914 8.24498C1.99753 3.17956 8.68616 -0.274844 12.1864 3.26157C14.6081 5.71032 13.0139 13.244 9.10775 12.4609C5.36635 11.713 10.9392 5.71617 7.95278 4.53867C5.52519 3.58182 4.23491 7.46583 5.38596 9.39514C4.71141 12.7129 3.25839 15.8392 3.84666 20.0005C5.75461 18.6219 6.39779 15.9817 6.92527 13.2284C7.88415 13.8083 8.39595 14.4117 9.61955 14.5055C14.1316 14.8531 16.6513 10.02 16.0356 5.56191C15.4885 1.60955 11.5275 -0.401773 7.30961 0.0668859Z" fill="white"/>
</svg>
